# xmcd
#
# Track frame offsets: 
#        150
#        31090
#        52910
#        75312
#        100552
#        132530
#        157667
#        189292
#        217575
#        229597
#
# Disc length: 3440 seconds
#
# Revision: 2
# Processed by: cddbd v1.5.2PL0 Copyright (c) Steve Scherf et al.
# Submitted via: ExactAudioCopy v0.95b4
#
DISCID=600d6e0a
DTITLE=Andy Bey - Tuesdays in Chinatown
DYEAR=2001
DGENRE=Vocal Jazz
TTITLE0=Tuesdays in Chinatown
TTITLE1=Fragile
TTITLE2=Bridges
TTITLE3=Saidas E Bandeiras
TTITLE4=In a Mist
TTITLE5=I'll Remember April
TTITLE6=Invitation
TTITLE7=Little Girl Blue
TTITLE8=Just Friends
TTITLE9=Feelin' Lowdown
EXTD=
EXTT0=
EXTT1=
EXTT2=
EXTT3=
EXTT4=
EXTT5=
EXTT6=
EXTT7=
EXTT8=
EXTT9=
PLAYORDER=
